<?xml version="1.0" encoding="UTF-8"?> <svg xmlns="http://www.w3.org/2000/svg" width="68" height="68" viewBox="0 0 68 68" fill="none"><path d="M52.246 22.0341C52.4725 21.0685 52.5681 20.0929 52.5681 19.0975C52.5681 18.1021 52.4725 17.1265 52.246 16.1609L53.815 14.632C54.2374 14.2197 54.3534 13.5763 54.0564 13.063L52.1253 9.68367C51.8284 9.17108 51.1998 8.95953 50.637 9.12023L48.5046 9.72368C47.0516 8.35608 45.2962 7.36005 43.3956 6.78711L42.8729 4.61469C42.7271 4.04175 42.2193 3.64917 41.626 3.64917H37.7639C37.1706 3.64917 36.6628 4.04107 36.517 4.61469L35.9942 6.78711C34.0937 7.36005 32.3383 8.35608 30.8852 9.72368L28.7528 9.12023C28.1846 8.95953 27.5608 9.1704 27.2645 9.68367L25.3335 13.063C25.0365 13.5756 25.1525 14.2197 25.5749 14.632L27.1438 16.1609C26.9174 17.1217 26.8218 18.1021 26.8218 19.0975C26.8218 20.0929 26.9174 21.074 27.1438 22.0341L25.5749 23.563C25.1525 23.9753 25.0365 24.6187 25.3335 25.132L27.2645 28.5113C27.5615 29.0239 28.1846 29.2307 28.7528 29.0748L30.8852 28.4713C32.3383 29.8389 34.0937 30.8349 35.9942 31.4079L36.517 33.5803C36.658 34.1532 37.1706 34.5458 37.7639 34.5458H41.626C42.2193 34.5458 42.7271 34.1539 42.8729 33.5803L43.3956 31.4079C45.2962 30.8349 47.0516 29.8389 48.5046 28.4713L50.637 29.0748C51.2005 29.2409 51.829 29.0246 52.1253 28.5113L54.0564 25.132C54.3534 24.6194 54.2374 23.9753 53.815 23.563L52.246 22.0341ZM39.6943 25.1028C36.3556 25.1028 33.6889 22.4368 33.6889 19.0975C33.6889 15.7582 36.3549 13.0922 39.6943 13.0922C43.0336 13.0922 45.6996 15.7582 45.6996 19.0975C45.6996 22.4368 43.0336 25.1028 39.6943 25.1028Z" fill="#7E7E88"></path><path d="M31.6484 45.2059C31.8748 44.2404 31.9704 43.2647 31.9704 42.2694C31.9704 41.274 31.8748 40.2983 31.6484 39.3328L33.2173 37.8038C33.6398 37.3916 33.7557 36.7481 33.4587 36.2349L31.5277 32.8555C31.2307 32.343 30.6022 32.1314 30.0394 32.2921L27.907 32.8956C26.4539 31.528 24.6985 30.5319 22.798 29.959L22.2752 27.7866C22.1342 27.2136 21.6216 26.821 21.0283 26.821H17.1662C16.573 26.821 16.0651 27.2129 15.9193 27.7866L15.3966 29.959C13.496 30.5319 11.7406 31.528 10.2876 32.8956L8.15516 32.2921C7.58697 32.1314 6.96318 32.3423 6.66688 32.8555L4.73584 36.2349C4.43886 36.7475 4.5548 37.3916 4.97722 37.8038L6.54619 39.3328C6.31972 40.2936 6.22412 41.274 6.22412 42.2694C6.22412 43.2647 6.31972 44.2458 6.54619 45.2059L4.97722 46.7349C4.5548 47.1472 4.43886 47.7906 4.73584 48.3039L6.66688 51.6832C6.96386 52.1958 7.58697 52.4026 8.15516 52.2466L10.2876 51.6432C11.7406 53.0108 13.496 54.0068 15.3966 54.5798L15.9193 56.7522C16.0604 57.3251 16.573 57.7177 17.1662 57.7177H21.0283C21.6216 57.7177 22.1294 57.3258 22.2752 56.7522L22.798 54.5798C24.6985 54.0068 26.4539 53.0108 27.907 51.6432L30.0394 52.2466C30.6028 52.4128 31.2314 52.1965 31.5277 51.6832L33.4587 48.3039C33.7557 47.7913 33.6398 47.1472 33.2173 46.7349L31.6484 45.2059ZM19.0966 48.2747C15.758 48.2747 13.0913 45.6087 13.0913 42.2694C13.0913 38.9301 15.7573 36.264 19.0966 36.264C22.4359 36.264 25.1019 38.9301 25.1019 42.2694C25.1019 45.6087 22.4359 48.2747 19.0966 48.2747Z" fill="#7E7E88"></path><path d="M50.317 34.9534L50.7597 36.7929L50.9876 37.7381L51.9185 38.0188C53.5831 38.5205 55.1175 39.402 56.3556 40.5668L57.0546 41.2252L57.9788 40.9635L59.8393 40.4366L61.4354 43.2295L60.0753 44.5543L59.3891 45.2229L59.6074 46.1552C59.7939 46.9505 59.8847 47.7852 59.8847 48.7053C59.8847 49.6254 59.7939 50.4593 59.6074 51.2554L59.3891 52.1877L60.0753 52.8562L61.4354 54.1811L59.8393 56.9739L57.9788 56.4471L57.0546 56.1853L56.3556 56.8437C55.1175 58.0086 53.5838 58.89 51.9185 59.3918L50.9876 59.6725L50.7597 60.6177L50.317 62.4572H47.0963L46.6536 60.6177L46.4257 59.6725L45.4948 59.3918C43.8302 58.8893 42.2958 58.0086 41.0578 56.8437L40.3587 56.1853L39.4345 56.4471L37.574 56.9739L35.9779 54.1811L37.3381 52.8562L38.0249 52.187L37.8052 51.2533C37.6188 50.4634 37.5286 49.6294 37.5286 48.7053C37.5286 47.7811 37.6188 46.9471 37.8052 46.1572L38.0249 45.2236L37.3381 44.5543L35.9779 43.2295L37.574 40.4366L39.4345 40.9635L40.3587 41.2252L41.0578 40.5668C42.2958 39.402 43.8295 38.5205 45.4948 38.0188L46.4257 37.7381L46.6536 36.7929L47.0963 34.9534H50.317ZM50.6377 33.2583H46.7756C46.1823 33.2583 45.6745 33.6502 45.5287 34.2238L45.0059 36.3962C43.1054 36.9692 41.35 37.9652 39.897 39.3328L37.7645 38.7294C37.6391 38.6941 37.511 38.6765 37.3842 38.6765C36.9367 38.6765 36.5075 38.8928 36.2763 39.2928L34.3452 42.6721C34.0482 43.1847 34.1642 43.8289 34.5866 44.2411L36.1556 45.7701C35.9291 46.7308 35.8335 47.7113 35.8335 48.7066C35.8335 49.702 35.9291 50.6831 36.1556 51.6432L34.5866 53.1722C34.1642 53.5844 34.0482 54.2279 34.3452 54.7411L36.2763 58.1205C36.5081 58.5212 36.9394 58.7348 37.3876 58.7348C37.513 58.7348 37.6405 58.7178 37.7645 58.6839L39.897 58.0805C41.35 59.448 43.1054 60.4441 45.0059 61.017L45.5287 63.1894C45.6697 63.7624 46.1823 64.155 46.7756 64.155H50.6377C51.231 64.155 51.7388 63.7631 51.8846 63.1894L52.4074 61.017C54.3079 60.4441 56.0633 59.448 57.5163 58.0805L59.6488 58.6839C59.7742 58.7205 59.903 58.7388 60.0305 58.7388C60.476 58.7388 60.9065 58.5191 61.1377 58.1205L63.0688 54.7411C63.3657 54.2285 63.2498 53.5844 62.8274 53.1722L61.2584 51.6432C61.4849 50.6777 61.5805 49.702 61.5805 48.7066C61.5805 47.7113 61.4849 46.7356 61.2584 45.7701L62.8274 44.2411C63.2498 43.8289 63.3657 43.1854 63.0688 42.6721L61.1377 39.2928C60.9065 38.8934 60.4739 38.6765 60.0278 38.6765C59.901 38.6765 59.7735 38.6941 59.6494 38.7294L57.517 39.3328C56.064 37.9652 54.3086 36.9692 52.408 36.3962L51.8853 34.2238C51.7442 33.6509 51.2317 33.2583 50.6384 33.2583H50.6377Z" fill="#7E7E88"></path><path d="M48.7068 43.5379C50.0886 43.5379 51.3871 44.0749 52.3628 45.0506C53.3385 46.0262 53.8755 47.324 53.8755 48.7065C53.8755 50.089 53.3385 51.3868 52.3628 52.3625C51.3871 53.3382 50.0893 53.8752 48.7068 53.8752C47.3243 53.8752 46.0265 53.3382 45.0509 52.3625C44.0752 51.3868 43.5382 50.089 43.5382 48.7065C43.5382 47.324 44.0752 46.0262 45.0509 45.0506C46.0265 44.0749 47.3243 43.5379 48.7068 43.5379ZM48.7068 41.8428C44.9132 41.8428 41.8438 44.9122 41.8438 48.7058C41.8438 52.4994 44.9132 55.5689 48.7068 55.5689C52.5004 55.5689 55.5699 52.4994 55.5699 48.7058C55.5699 44.9122 52.5004 41.8428 48.7068 41.8428Z" fill="#7E7E88"></path></svg> 