<?xml version="1.0" encoding="UTF-8"?> <svg xmlns="http://www.w3.org/2000/svg" width="68" height="68" viewBox="0 0 68 68" fill="none"><path d="M28.0723 3.28027H39.9287" stroke="#7E7E88" stroke-width="2.0341" stroke-miterlimit="10"></path><path d="M37.3411 3.8999H30.5859V7.64942H37.3411V3.8999Z" fill="#7E7E88"></path><path d="M52.8672 10.5039L57.4959 15.1327" stroke="#7E7E88" stroke-width="1.69509" stroke-miterlimit="10"></path><path d="M34 8.43481V12.8188" stroke="#7E7E88" stroke-width="1.69509" stroke-miterlimit="10"></path><path d="M8.69336 34H12.8189" stroke="#7E7E88" stroke-width="1.69509" stroke-miterlimit="10"></path><path d="M34 59.307V55.1814" stroke="#7E7E88" stroke-width="1.69509" stroke-miterlimit="10"></path><path d="M59.7397 34H55.1816" stroke="#7E7E88" stroke-width="1.69509" stroke-miterlimit="10"></path><path d="M34.0001 36.9534C35.6311 36.9534 36.9534 35.6311 36.9534 34.0001C36.9534 32.3691 35.6311 31.0469 34.0001 31.0469C32.3691 31.0469 31.0469 32.3691 31.0469 34.0001C31.0469 35.6311 32.3691 36.9534 34.0001 36.9534Z" fill="#7E7E88"></path><path d="M39.5187 37.2287L16.7754 24.0979" stroke="#7E7E88" stroke-width="1.69509" stroke-miterlimit="10"></path><path d="M11.3203 20.9487C15.8396 13.1124 24.3036 7.83765 34.0004 7.83765C48.4497 7.83765 60.1634 19.5513 60.1634 34.0006C60.1634 38.7804 58.8816 43.2602 56.643 47.1158" stroke="#7E7E88" stroke-width="1.69509" stroke-miterlimit="10"></path><path d="M11.3209 20.9487C9.10541 24.7901 7.83789 29.2468 7.83789 34C7.83789 48.4493 19.5516 60.163 34.0009 60.163C43.6705 60.163 52.1147 54.9168 56.6435 47.1158" stroke="#7E7E88" stroke-width="1.69509" stroke-miterlimit="10"></path><path d="M15.1758 20.0286C17.0424 17.5221 19.419 15.3808 22.1029 13.7964C24.8923 12.1495 28.0448 11.0934 31.2816 10.7153V29.2963L15.1765 20.0279L15.1758 20.0286Z" fill="#7E7E88"></path></svg> 