<?xml version="1.0" encoding="UTF-8"?> <svg xmlns="http://www.w3.org/2000/svg" width="68" height="68" viewBox="0 0 68 68" fill="none"><path d="M29.4938 8.20093H9.74727C8.77796 8.20093 7.99219 8.9867 7.99219 9.95601V29.7025C7.99219 30.6718 8.77796 31.4576 9.74727 31.4576H29.4938C30.4631 31.4576 31.2489 30.6718 31.2489 29.7025V9.95601C31.2489 8.9867 30.4631 8.20093 29.4938 8.20093Z" fill="#7E7E88"></path><path d="M29.4938 36.5425H9.74727C8.77796 36.5425 7.99219 37.3283 7.99219 38.2976V58.0441C7.99219 59.0134 8.77796 59.7992 9.74727 59.7992H29.4938C30.4631 59.7992 31.2489 59.0134 31.2489 58.0441V38.2976C31.2489 37.3283 30.4631 36.5425 29.4938 36.5425Z" fill="#7E7E88"></path><path d="M58.2535 36.5425H38.507C37.5377 36.5425 36.752 37.3283 36.752 38.2976V58.0441C36.752 59.0134 37.5377 59.7992 38.507 59.7992H58.2535C59.2229 59.7992 60.0086 59.0134 60.0086 58.0441V38.2976C60.0086 37.3283 59.2229 36.5425 58.2535 36.5425Z" fill="#7E7E88"></path><path d="M48.3789 8.20093V31.4576" stroke="#7E7E88" stroke-width="2.05241" stroke-miterlimit="10"></path><path d="M60.0086 19.8286H36.752" stroke="#7E7E88" stroke-width="2.05241" stroke-miterlimit="10"></path></svg> 