<?xml version="1.0" encoding="UTF-8"?> <svg xmlns="http://www.w3.org/2000/svg" width="68" height="68" viewBox="0 0 68 68" fill="none"><path d="M60.1789 54.7254C60.1789 56.5252 58.7063 57.9978 56.9065 57.9978H11.0927C9.2929 57.9978 7.82031 56.5252 7.82031 54.7254V35.0909C7.82031 33.2911 8.86094 30.7779 10.135 29.5038L31.6849 7.9539C32.9568 6.68203 35.0402 6.68203 36.3121 7.9539L57.8642 29.506C59.1361 30.7779 60.1789 33.2933 60.1789 35.0931V54.7276V54.7254Z" fill="#F2F4F9"></path><path d="M57.8642 29.5038L36.3143 7.9539C35.0424 6.68203 32.959 6.68203 31.6871 7.9539L10.135 29.5038C8.86312 30.7757 7.82031 33.2911 7.82031 35.0909V54.7254C7.82031 56.5252 9.2929 57.9978 11.0927 57.9978H31.2224L22.3586 49.1339C21.9026 49.291 21.4161 49.3805 20.91 49.3805C18.4447 49.3805 16.4377 47.3734 16.4377 44.9082C16.4377 42.443 18.4447 40.4359 20.91 40.4359C23.3752 40.4359 25.3823 42.443 25.3823 44.9082C25.3823 45.4165 25.2928 45.903 25.1357 46.3589L32.0362 53.2594V27.9789C30.5527 27.2502 29.5273 25.7275 29.5273 23.9669C29.5273 21.5017 31.5344 19.4946 33.9996 19.4946C36.4648 19.4946 38.4719 21.5017 38.4719 23.9669C38.4719 25.7275 37.4466 27.2502 35.9631 27.9789V45.7088L42.8264 38.8455C42.6911 38.4179 42.617 37.9641 42.617 37.4929C42.617 35.0277 44.624 33.0206 47.0893 33.0206C49.5545 33.0206 51.5616 35.0277 51.5616 37.4929C51.5616 39.9581 49.5545 41.9652 47.0893 41.9652C46.5439 41.9652 46.0246 41.8626 45.5425 41.6838L35.9631 51.2632V58H56.9065C58.7063 58 60.1789 56.5274 60.1789 54.7276V35.0931C60.1789 33.2933 59.1383 30.7801 57.8642 29.506V29.5038Z" fill="#7E7E88"></path></svg> 